<?xml version="1.0" encoding="UTF-8" standalone="no"?>
<!DOCTYPE svg PUBLIC "-//W3C//DTD SVG 1.1//EN" "http://www.w3.org/Graphics/SVG/1.1/DTD/svg11.dtd">
<svg width="100%" height="100%" viewBox="0 0 400 400" version="1.1" xmlns="http://www.w3.org/2000/svg" xmlns:xlink="http://www.w3.org/1999/xlink" xml:space="preserve" xmlns:serif="http://www.serif.com/" style="fill-rule:evenodd;clip-rule:evenodd;">
    <g transform="matrix(0.515231,0,0,0.515231,7.28639,7.28639)">
        <g transform="matrix(-1.19518,1.19518,-1.19518,-1.19518,1003.24,375.153)">
            <path d="M131.207,168.743C188.207,111.742 193.644,0.407 264.527,0.001C335.411,-0.404 319.733,95.254 376.733,152.255C433.734,209.255 530.581,193.541 528.985,264.459C527.389,335.378 434.587,319.103 377.587,376.104C320.586,433.104 335.374,528.226 264.528,528.918C193.682,529.61 208.255,434.731 151.254,377.732C94.254,320.731 3.132,336.13 0.069,264.46C-2.995,192.789 74.207,225.743 131.207,168.743Z" style="fill:white;stroke:rgb(52,47,47);stroke-width:45.93px;"/>
        </g>
        <g transform="matrix(0.788464,0,0,0.724188,66.57,118.219)">
            <g transform="matrix(1.69049,0,0,-1.69049,399.39,389.894)">
                <path d="M2.594,-4.752C10.137,-0.287 32.342,3.555 45.222,-5.549C47.431,-7.111 50.286,-10.475 52.019,-12.552L113.425,-86.148C115.158,-88.226 116.991,-92.316 114.635,-93.647C106.829,-98.055 81.685,-100.922 69.494,-93.1C67.216,-91.64 64.427,-88.201 62.731,-86.093L3.35,-12.263C1.654,-10.155 0.266,-6.13 2.594,-4.752Z" style="fill:rgb(255,215,14);stroke:rgb(255,206,0);stroke-width:14.81px;"/>
            </g>
            <g transform="matrix(-1.69049,0,0,-1.69049,380.515,389.894)">
                <path d="M2.594,-4.752C10.137,-0.287 32.342,3.555 45.222,-5.549C47.431,-7.111 50.286,-10.475 52.019,-12.552L113.425,-86.148C115.158,-88.226 116.991,-92.316 114.635,-93.647C106.829,-98.055 81.685,-100.922 69.494,-93.1C67.216,-91.64 64.427,-88.201 62.731,-86.093L3.35,-12.263C1.654,-10.155 0.266,-6.13 2.594,-4.752Z" style="fill:rgb(255,215,14);stroke:rgb(255,206,0);stroke-width:14.81px;"/>
            </g>
            <g transform="matrix(1.69049,0,0,1.69049,397.978,316.592)">
                <path d="M2.594,-4.752C10.137,-0.287 32.342,3.555 45.222,-5.549C47.431,-7.111 50.286,-10.475 52.019,-12.552L113.425,-86.148C115.158,-88.226 116.991,-92.316 114.635,-93.647C106.829,-98.055 81.685,-100.922 69.494,-93.1C67.216,-91.64 64.427,-88.201 62.731,-86.093L3.35,-12.263C1.654,-10.155 0.266,-6.13 2.594,-4.752Z" style="fill:rgb(255,215,14);stroke:rgb(255,206,0);stroke-width:14.81px;"/>
            </g>
            <g transform="matrix(-1.69049,0,0,1.69049,380.515,316.592)">
                <path d="M2.594,-4.752C10.137,-0.287 32.342,3.555 45.222,-5.549C47.431,-7.111 50.286,-10.475 52.019,-12.552L113.425,-86.148C115.158,-88.226 116.991,-92.316 114.635,-93.647C106.829,-98.055 81.685,-100.922 69.494,-93.1C67.216,-91.64 64.427,-88.201 62.731,-86.093L3.35,-12.263C1.654,-10.155 0.266,-6.13 2.594,-4.752Z" style="fill:rgb(255,215,14);stroke:rgb(255,206,0);stroke-width:14.81px;"/>
            </g>
        </g>
    </g>
</svg>
