<?xml version="1.0" encoding="UTF-8" standalone="no"?>
<!DOCTYPE svg PUBLIC "-//W3C//DTD SVG 1.1//EN" "http://www.w3.org/Graphics/SVG/1.1/DTD/svg11.dtd">
<svg width="100%" height="100%" viewBox="0 0 400 400" version="1.1" xmlns="http://www.w3.org/2000/svg" xmlns:xlink="http://www.w3.org/1999/xlink" xml:space="preserve" xmlns:serif="http://www.serif.com/" style="fill-rule:evenodd;clip-rule:evenodd;">
    <g transform="matrix(0.515231,0,0,0.515231,7.28639,7.28639)">
        <g transform="matrix(-1.19518,1.19518,-1.19518,-1.19518,1003.24,375.153)">
            <path d="M146.682,148.87C203.682,91.87 193.644,0.407 264.527,0.001C335.411,-0.404 320.779,94.208 377.779,151.209C434.78,208.209 530.581,193.541 528.985,264.459C527.389,335.378 434.79,319.306 377.79,376.307C320.789,433.307 335.374,528.226 264.528,528.918C193.682,529.61 206.782,435.403 149.781,378.404C92.781,321.403 3.132,336.13 0.069,264.46C-2.995,192.789 89.682,205.87 146.682,148.87Z" style="fill:white;stroke:rgb(52,47,47);stroke-width:45.93px;"/>
        </g>
        <g transform="matrix(1,0,0,1,-6.59763,-1.36413)">
            <g transform="matrix(1.69049,0,0,-1.69049,380.747,389.894)">
                <path d="M2.594,-4.752C10.137,-0.287 32.342,3.555 45.222,-5.549C47.431,-7.111 50.286,-10.475 52.019,-12.552L113.425,-86.148C115.158,-88.226 116.991,-92.316 114.635,-93.647C106.829,-98.055 81.685,-100.922 69.494,-93.1C67.216,-91.64 64.427,-88.201 62.731,-86.093L3.35,-12.263C1.654,-10.155 0.266,-6.13 2.594,-4.752Z" style="fill:rgb(255,192,0);stroke:rgb(255,199,0);stroke-width:11.27px;"/>
            </g>
            <g transform="matrix(-1.69049,0,0,-1.69049,380.515,389.894)">
                <path d="M2.594,-4.752C10.137,-0.287 32.342,3.555 45.222,-5.549C47.431,-7.111 50.286,-10.475 52.019,-12.552L113.425,-86.148C115.158,-88.226 116.991,-92.316 114.635,-93.647C106.829,-98.055 81.685,-100.922 69.494,-93.1C67.216,-91.64 64.427,-88.201 62.731,-86.093L3.35,-12.263C1.654,-10.155 0.266,-6.13 2.594,-4.752Z" style="fill:rgb(255,192,0);stroke:rgb(255,199,0);stroke-width:11.27px;"/>
            </g>
            <g transform="matrix(1.69049,0,0,1.69049,380.747,360.901)">
                <path d="M2.594,-4.752C10.137,-0.287 32.342,3.555 45.222,-5.549C47.431,-7.111 50.286,-10.475 52.019,-12.552L113.425,-86.148C115.158,-88.226 116.991,-92.316 114.635,-93.647C106.829,-98.055 81.685,-100.922 69.494,-93.1C67.216,-91.64 64.427,-88.201 62.731,-86.093L3.35,-12.263C1.654,-10.155 0.266,-6.13 2.594,-4.752Z" style="fill:rgb(255,192,0);stroke:rgb(255,199,0);stroke-width:11.27px;"/>
            </g>
            <g transform="matrix(-1.69049,0,0,1.69049,380.515,360.901)">
                <path d="M2.594,-4.752C10.137,-0.287 32.342,3.555 45.222,-5.549C47.431,-7.111 50.286,-10.475 52.019,-12.552L113.425,-86.148C115.158,-88.226 116.991,-92.316 114.635,-93.647C106.829,-98.055 81.685,-100.922 69.494,-93.1C67.216,-91.64 64.427,-88.201 62.731,-86.093L3.35,-12.263C1.654,-10.155 0.266,-6.13 2.594,-4.752Z" style="fill:rgb(255,192,0);stroke:rgb(255,199,0);stroke-width:11.27px;"/>
            </g>
        </g>
    </g>
</svg>
