<?xml version="1.0" encoding="UTF-8" standalone="no"?>
<!DOCTYPE svg PUBLIC "-//W3C//DTD SVG 1.1//EN" "http://www.w3.org/Graphics/SVG/1.1/DTD/svg11.dtd">
<svg width="100%" height="100%" viewBox="0 0 800 300" version="1.1" xmlns="http://www.w3.org/2000/svg" xmlns:xlink="http://www.w3.org/1999/xlink" xml:space="preserve" xmlns:serif="http://www.serif.com/" style="fill-rule:evenodd;clip-rule:evenodd;stroke-linejoin:round;stroke-miterlimit:2;">
    <g transform="matrix(1.25787,0,0,1.25787,-138.5,89.9847)">
        <g transform="matrix(1,0,0,1,5.51536,0)">
            <path d="M170.803,23.202C161.603,23.018 153.691,26.33 147.619,30.378C146.331,31.298 144.859,32.77 143.755,34.058L143.755,32.77C143.755,27.434 139.155,23.202 133.635,23.202C128.299,23.202 123.883,27.434 123.883,32.77L123.883,105.266C123.883,110.602 128.299,115.018 133.635,115.018C139.155,115.018 143.755,110.602 143.755,105.266L143.755,70.306C144.675,67.73 146.883,60.738 151.299,54.85C153.507,51.354 156.267,48.226 159.763,46.018C162.891,43.626 166.571,42.522 170.803,42.522C176.323,42.522 180.555,37.922 180.555,32.77C180.555,27.434 176.323,23.202 170.803,23.202Z" style="fill-rule:nonzero;stroke:black;stroke-width:4.86px;"/>
        </g>
        <g transform="matrix(1,0,0,1,6.30327,0)">
            <path d="M224.715,115.018C237.779,115.018 248.635,111.154 257.651,102.874C261.883,99.01 260.043,93.49 257.651,90.914C255.259,87.97 247.715,87.418 243.851,91.466C239.251,94.962 231.339,96.618 224.715,96.066C218.275,95.514 210.915,92.202 207.051,87.786C203.739,84.658 201.715,79.874 200.795,75.642L259.307,75.642C264.459,75.642 268.323,72.698 268.875,68.282C269.059,67.914 269.059,66.994 269.059,66.626L269.059,65.706C267.587,40.866 248.635,23.018 224.715,23.018C199.507,23.018 180.003,43.994 179.819,69.018C180.003,94.042 199.507,114.834 224.715,115.018ZM224.715,40.498C240.723,41.786 250.107,52.642 251.947,60.002L199.875,60.002C201.347,52.458 209.075,41.234 224.715,40.498Z" style="fill-rule:nonzero;stroke:black;stroke-width:4.86px;"/>
        </g>
    </g>
    <g transform="matrix(1.25787,0,0,1.25787,127.985,91.1376)">
        <g transform="matrix(1,0,0,1,0,-0.991418)">
            <path d="M187.731,115.018C203.923,115.018 218.643,109.682 230.235,100.666C234.651,97.17 235.387,90.546 232.075,85.946C228.395,81.53 221.587,80.794 217.355,83.922C209.075,90.546 199.139,94.042 187.731,94.042C175.035,94.042 163.259,88.89 154.611,80.794C146.331,72.698 141.179,61.29 141.179,48.778C141.179,36.266 146.331,25.226 154.611,16.762C163.259,8.666 175.035,3.514 187.731,3.514C199.139,3.514 209.259,7.01 217.355,13.634C221.587,16.946 228.395,16.21 232.075,11.61C235.387,7.01 234.651,0.57 230.235,-3.11C218.643,-12.126 203.923,-17.462 187.731,-17.462C150.931,-17.278 120.387,12.346 120.203,48.778C120.387,85.394 150.931,115.018 187.731,115.018Z" style="fill:rgb(120,120,120);fill-rule:nonzero;stroke:rgb(54,54,52);stroke-width:4.86px;"/>
        </g>
        <g transform="matrix(1,0,0,1,-8.36398,-0.991418)">
            <path d="M303.467,23.202C294.267,23.018 286.355,26.33 280.283,30.378C278.995,31.298 277.523,32.77 276.419,34.058L276.419,32.77C276.419,27.434 271.819,23.202 266.299,23.202C260.963,23.202 256.547,27.434 256.547,32.77L256.547,105.266C256.547,110.602 260.963,115.018 266.299,115.018C271.819,115.018 276.419,110.602 276.419,105.266L276.419,70.306C277.339,67.73 279.547,60.738 283.963,54.85C286.171,51.354 288.931,48.226 292.427,46.018C295.555,43.626 299.235,42.522 303.467,42.522C308.987,42.522 313.219,37.922 313.219,32.77C313.219,27.434 308.987,23.202 303.467,23.202Z" style="fill:rgb(120,120,120);fill-rule:nonzero;stroke:rgb(54,54,52);stroke-width:4.86px;"/>
        </g>
        <g transform="matrix(1,0,0,1,-7.32214,-0.991418)">
            <path d="M401.355,32.954C401.355,27.434 396.939,23.018 391.603,23.018C386.819,23.018 383.139,26.514 382.035,31.114C375.043,26.146 366.763,23.018 357.563,23.018C345.051,23.018 334.195,28.354 326.283,36.818C318.371,45.098 313.771,56.506 313.771,69.202C313.771,81.714 318.371,93.122 326.283,101.586C334.195,109.866 345.051,115.018 357.563,115.018C366.763,115.018 375.043,112.074 382.035,107.106C383.139,111.522 386.819,115.018 391.603,115.018C396.939,115.018 401.355,110.602 401.355,105.266L401.355,32.954ZM374.675,88.154C370.259,92.754 364.003,95.33 357.563,95.33C350.939,95.33 344.683,92.754 340.451,88.154C336.035,83.37 333.459,76.746 333.459,69.202C333.459,61.474 336.035,54.85 340.451,50.25C344.683,45.282 350.939,42.706 357.563,42.706C364.003,42.706 370.259,45.282 374.675,50.25C379.091,54.85 381.851,61.474 381.851,69.202C381.851,76.746 379.091,83.37 374.675,88.154Z" style="fill:rgb(120,120,120);fill-rule:nonzero;stroke:rgb(54,54,52);stroke-width:4.86px;"/>
        </g>
        <g transform="matrix(1,0,0,1,-14.2572,-0.826182)">
            <path d="M460.051,7.562C460.235,7.378 460.419,7.194 461.155,7.01C461.891,6.642 463.547,6.458 465.939,6.458C471.459,6.458 476.059,1.858 476.059,-3.846C476.059,-9.366 471.459,-13.966 465.939,-13.966C462.075,-13.966 458.579,-13.598 454.899,-12.494C449.379,-10.838 444.227,-6.606 441.651,-1.086C438.891,4.25 438.155,10.138 438.155,16.946L438.155,19.522L433.371,19.522C427.667,19.522 423.067,23.938 423.067,29.642C423.067,35.162 427.667,39.762 433.371,39.762L438.155,39.762L438.155,104.714C438.155,110.234 442.571,114.834 448.275,114.834C453.979,114.834 458.395,110.234 458.395,104.714L458.395,39.762L463.915,39.762C469.435,39.762 474.035,35.162 474.035,29.642C474.035,23.938 469.435,19.522 463.915,19.522L458.395,19.522L458.395,16.946C458.395,10.138 459.867,7.562 460.051,7.562Z" style="fill:rgb(120,120,120);fill-rule:nonzero;stroke:rgb(54,54,52);stroke-width:4.86px;"/>
        </g>
        <g transform="matrix(1,0,0,1,-5.79225,-1.03273)">
            <path d="M516.723,23.018L512.123,23.018L512.123,-3.662C512.123,-9.366 507.707,-13.782 502.003,-13.782C496.299,-13.782 491.699,-9.366 491.699,-3.662L491.699,23.018L486.363,23.018C480.659,23.018 476.243,27.434 476.243,33.138C476.243,38.658 480.659,43.258 486.363,43.258L491.699,43.258L491.699,94.594C491.699,105.818 500.899,115.018 512.123,115.018C517.827,115.018 522.243,110.602 522.243,104.898C522.243,99.194 517.827,94.594 512.123,94.594L512.123,43.258L516.723,43.258C522.243,43.258 527.027,38.658 527.027,33.138C527.027,27.434 522.243,23.018 516.723,23.018Z" style="fill:rgb(120,120,120);fill-rule:nonzero;stroke:rgb(54,54,52);stroke-width:4.86px;"/>
        </g>
    </g>
    <g transform="matrix(1.25787,0,0,1.25787,72.1696,88.8555)">
        <path d="M122.779,102.69C122.779,110.234 128.851,116.306 136.395,116.306C143.939,116.306 150.195,110.234 150.195,102.69C150.195,95.146 143.939,88.89 136.395,88.89C128.851,88.89 122.779,95.146 122.779,102.69ZM122.779,29.458C122.779,37.002 128.851,43.074 136.395,43.074C143.939,43.074 150.195,37.002 150.195,29.458C150.195,21.914 143.939,15.658 136.395,15.658C128.851,15.658 122.779,21.914 122.779,29.458Z" style="fill:rgb(255,215,14);fill-rule:nonzero;stroke:rgb(255,188,0);stroke-width:4.01px;"/>
    </g>
</svg>
